# xmcd
#
# Track frame offsets:
#       150
#       6520
#       23082
#       40187
#       55147
#       73327
#       89697
#       106265
#       127977
#       140900
#       156687
#       173032
#       186895
#
# Disc length: 2646 seconds
#
# Revision: 0
# Processed by: cddbd v1.5.1PL0 Copyright (c) Steve Scherf et al.
# Submitted via: WaveLab 4.01
#
DISCID=be0a540d
DTITLE=Moose Brothers - A briefcase full of moose
DYEAR=2000
DGENRE=Blues
TTITLE0=Opening (I Can't Turn You Loose)
TTITLE1=Every Body Needs Some Body To Love
TTITLE2=Gimmi Some Lovin'
TTITLE3=Sweet Home Chicago
TTITLE4=Soulman
TTITLE5=Going Back To Lousiana
TTITLE6=You Are My Sunshine
TTITLE7=Going Back To Miami
TTITLE8=Hold On I'm Comin'
TTITLE9=Shake Your Tailfeather
TTITLE10=Mr Pitiful/Closing (Can't Turn You Loose)
TTITLE11=Soul Finger
TTITLE12=Rawhide
EXTD=
EXTT0=
EXTT1=
EXTT2=
EXTT3=
EXTT4=
EXTT5=
EXTT6=
EXTT7=
EXTT8=
EXTT9=
EXTT10=
EXTT11=
EXTT12=
PLAYORDER=
